<svg width="319" height="223" viewBox="0 0 319 223" fill="none" xmlns="http://www.w3.org/2000/svg">
<g clip-path="url(#clip0_1230_2841)">
<path d="M15.4852 221.673C17.4436 222.132 19.4082 222.535 21.385 222.895H10.6982C9.29903 222.517 7.90612 222.113 6.52568 221.673C3.49039 220.72 0.50182 219.627 -2.44003 218.393C-14.24 213.419 -25.1094 205.954 -33.3329 196.019C-37.3547 191.206 -40.639 185.817 -43.077 180.031C-45.7208 173.49 -47.4009 166.597 -48.0645 159.57C-49.5548 145.151 -48.0342 130.335 -45.1937 116.173C-42.2624 101.495 -37.5306 87.2384 -31.1066 73.7298C-30.3341 72.1108 -29.5353 70.5019 -28.7102 68.9032C-28.6534 68.7716 -28.5675 68.6547 -28.4589 68.5616C-28.3504 68.4684 -28.2221 68.4013 -28.0838 68.3656C-27.803 68.3109 -27.5121 68.3702 -27.2748 68.5305C-26.9899 68.6947 -26.7787 68.9624 -26.6848 69.2785C-26.5908 69.5946 -26.6213 69.9348 -26.7699 70.229C-33.3933 83.2032 -38.4141 96.9416 -41.7207 111.139C-44.9564 124.989 -46.7933 139.481 -46.167 153.723C-45.5709 167.029 -42.1097 180.116 -34.2574 190.997C-27.0862 200.931 -17.1841 208.764 -6.22936 214.098C0.704315 217.43 7.98796 219.971 15.4852 221.673Z" fill="white"/>
<path d="M38.9395 222.896H35.7887C35.4359 222.493 35.0952 222.083 34.7608 221.674C27.5841 212.915 22.7223 202.48 20.625 191.334C18.078 177.424 20.0594 163.059 26.2756 150.369C28.0099 146.81 30.0534 143.413 32.3824 140.215C33.2095 140.392 34.0248 140.594 34.8276 140.838C28.7016 148.991 24.5812 158.482 22.8025 168.539C21.2158 177.962 21.7433 187.623 24.3467 196.815C26.9501 206.008 31.5637 214.5 37.8508 221.674C38.2033 222.083 38.5683 222.493 38.9395 222.896Z" fill="white"/>
<path d="M154.64 129.834H96.2598L95.6409 111.804C95.6141 111.023 95.7563 110.244 96.0576 109.523C96.3588 108.802 96.8121 108.155 97.3862 107.627C97.9602 107.099 98.6414 106.702 99.3829 106.463C100.124 106.224 100.909 106.15 101.681 106.245L135.655 110.424H135.659C140.695 110.437 145.521 112.456 149.079 116.037C152.637 119.618 154.637 124.469 154.64 129.528V129.834Z" fill="#ED285D"/>
<path d="M127.105 50H68.8947C68.1206 49.9998 67.3539 50.1413 66.6387 50.4163C65.9234 50.6913 65.2735 51.0945 64.7261 51.6028C64.1787 52.1111 63.7445 52.7146 63.4483 53.3788C63.1521 54.043 62.9998 54.7548 63 55.4737V109.526C62.9998 110.245 63.1521 110.957 63.4483 111.621C63.7445 112.285 64.1787 112.889 64.7261 113.397C65.2735 113.906 65.9234 114.309 66.6387 114.584C67.3539 114.859 68.1206 115 68.8947 115H127.105C127.879 115 128.646 114.859 129.361 114.584C130.077 114.309 130.727 113.906 131.274 113.397C131.821 112.889 132.256 112.285 132.552 111.621C132.848 110.957 133 110.245 133 109.526V55.4737C133 54.7548 132.848 54.043 132.552 53.3788C132.256 52.7146 131.821 52.1111 131.274 51.6028C130.727 51.0944 130.077 50.6913 129.361 50.4163C128.646 50.1413 127.879 49.9998 127.105 50Z" fill="#CCCCCC"/>
<path d="M113.733 84.8752L86.3984 90.9859C84.7769 91.3462 83.0972 90.9534 81.7278 89.8938C80.3583 88.8342 79.4108 87.1943 79.0933 85.3337L76.9921 72.9473C76.6782 71.086 77.0203 69.1577 77.9434 67.5856C78.8664 66.0135 80.2951 64.9259 81.9158 64.5615L109.251 58.4508C110.872 58.0905 112.552 58.4833 113.921 59.5429C115.291 60.6025 116.238 62.2424 116.556 64.103L118.657 76.4894C118.971 78.3507 118.629 80.2789 117.705 81.851C116.782 83.4231 115.354 84.5107 113.733 84.8752Z" fill="#67657E"/>
<path d="M108.264 70.2423L87.4031 74.9057C87.0216 74.991 86.6261 74.8988 86.3038 74.6494C85.9814 74.4 85.7586 74.0138 85.6843 73.5758C85.61 73.1378 85.6903 72.6838 85.9075 72.3138C86.1248 71.9437 86.4612 71.6879 86.8428 71.6026L107.704 66.9392C108.085 66.8539 108.481 66.9461 108.803 67.1956C109.125 67.445 109.348 67.8312 109.422 68.2692C109.497 68.7072 109.416 69.1611 109.199 69.5312C108.982 69.9012 108.645 70.157 108.264 70.2423Z" fill="white"/>
<path d="M104.21 77.1476L93.4197 79.5597C93.0382 79.645 92.6427 79.5527 92.3203 79.3033C91.998 79.0539 91.7752 78.6677 91.7009 78.2297C91.6266 77.7917 91.7069 77.3378 91.9241 76.9677C92.1414 76.5977 92.4778 76.3419 92.8594 76.2566L103.649 73.8445C103.838 73.8023 104.033 73.8032 104.221 73.8471C104.41 73.8911 104.589 73.9773 104.749 74.1008C104.908 74.2243 105.045 74.3827 105.152 74.5669C105.258 74.7511 105.331 74.9575 105.368 75.1744C105.405 75.3913 105.404 75.6144 105.366 75.8309C105.328 76.0474 105.253 76.2532 105.145 76.4364C105.037 76.6196 104.899 76.7767 104.739 76.8988C104.578 77.0208 104.399 77.1053 104.21 77.1476Z" fill="white"/>
<path d="M76.9859 32.8283L81.4026 40.4783L21.7818 74.9003L17.3651 67.2504C16.923 66.485 16.6151 65.6521 16.459 64.7992C16.3029 63.9464 16.3017 63.0902 16.4555 62.2798C16.6092 61.4693 16.9149 60.7204 17.3551 60.0758C17.7952 59.4313 18.3612 58.9037 19.0207 58.5232L68.6001 29.8985C69.2594 29.5176 69.9993 29.2912 70.7776 29.2323C71.5558 29.1734 72.3572 29.2832 73.136 29.5553C73.9147 29.8274 74.6556 30.2564 75.3162 30.818C75.9767 31.3796 76.5441 32.0628 76.9859 32.8283Z" fill="#B3B3B3"/>
<path d="M230.519 77.1594C230.236 76.2428 229.757 75.3997 229.115 74.6894C228.473 73.979 227.683 73.4187 226.802 73.048C225.921 72.6772 224.97 72.5051 224.015 72.5435C223.061 72.582 222.126 72.8303 221.278 73.2708L165.26 53.083L162.793 67.1395L218.632 82.5634C219.463 83.9464 220.771 84.975 222.307 85.4545C223.842 85.9339 225.5 85.8308 226.965 85.1647C228.43 84.4986 229.601 83.3157 230.256 81.8403C230.911 80.3649 231.005 78.6994 230.519 77.1594Z" fill="#FFB8B8"/>
<path opacity="0.2" d="M230.519 77.1594C230.236 76.2428 229.757 75.3997 229.115 74.6894C228.473 73.979 227.683 73.4187 226.802 73.048C225.921 72.6772 224.97 72.5051 224.015 72.5435C223.061 72.582 222.126 72.8303 221.278 73.2708L165.26 53.083L162.793 67.1395L218.632 82.5634C219.463 83.9464 220.771 84.975 222.307 85.4545C223.842 85.9339 225.5 85.8308 226.965 85.1647C228.43 84.4986 229.601 83.3157 230.256 81.8403C230.911 80.3649 231.005 78.6994 230.519 77.1594Z" fill="black"/>
<path d="M175.203 55.6438L169.914 69.525C169.763 69.9199 169.53 70.2777 169.229 70.5738C168.928 70.8699 168.568 71.0975 168.172 71.2411C167.776 71.3846 167.354 71.4408 166.934 71.4056C166.515 71.3705 166.107 71.245 165.74 71.0376L152.884 63.7695C150.877 62.9844 149.262 61.4319 148.392 59.4524C147.523 57.4728 147.471 55.2278 148.246 53.2094C149.022 51.1911 150.563 49.5641 152.532 48.6852C154.5 47.8063 156.735 47.7472 158.746 48.5208L173.102 51.719C173.513 51.8107 173.9 51.9903 174.236 52.2455C174.571 52.5008 174.848 52.8257 175.048 53.1982C175.247 53.5707 175.364 53.9819 175.391 54.404C175.418 54.826 175.354 55.2489 175.203 55.6438Z" fill="#ED285D"/>
<path d="M234.929 90.0117L214.856 99.1761L217.492 109.141C222.581 128.385 223.931 148.434 221.47 168.191L236.145 171.269L248.31 140.11L244.052 104.675L234.929 90.0117Z" fill="#ED285D"/>
<path d="M274.312 136.14C261.124 136.14 250.377 145.77 249.855 157.829H298.769C298.248 145.77 287.501 136.14 274.312 136.14Z" fill="#67657E"/>
<path d="M264.046 138.217C263.36 83.782 232.496 88.7899 232.496 88.7899C232.496 88.7899 233.073 105.734 233.35 106.261C253.018 143.639 220.559 187.46 179.241 179.398C178.462 179.246 177.713 179.092 176.995 178.935C171.76 177.837 167.138 174.778 164.069 170.378C160.999 165.979 159.714 160.57 160.473 155.253C164.544 122.423 144.3 123.004 144.3 123.004H114.698L99.326 109.107C98.7834 108.616 98.1294 108.267 97.4212 108.089C96.713 107.911 95.9722 107.91 95.2635 108.086C94.5549 108.262 93.9 108.61 93.3561 109.099C92.8121 109.588 92.3958 110.203 92.1434 110.891L90.1657 116.283C90.1657 116.283 60.9698 119.338 63.4028 148.053H72.4291C72.4073 148.869 72.4399 149.685 72.5265 150.497L139.89 149.947C143.839 149.914 147.325 153.128 147.341 157.095C147.345 158.06 147.155 159.017 146.783 159.907C146.41 160.797 145.863 161.603 145.173 162.276C144.483 162.949 143.666 163.475 142.769 163.823C141.872 164.171 140.915 164.334 139.954 164.302L129.094 163.938C125.748 178.906 133.96 188.987 143.007 195.326C151.526 201.207 161.634 204.326 171.971 204.261H201.475C239.795 204.261 246.485 171.88 246.485 171.88C266.557 163.327 264.046 138.217 264.046 138.217Z" fill="#67657E"/>
<path d="M272.488 221.979C291.384 221.979 306.702 206.593 306.702 187.613C306.702 168.632 291.384 153.246 272.488 153.246C253.592 153.246 238.274 168.632 238.274 187.613C238.274 206.593 253.592 221.979 272.488 221.979Z" fill="#67657E"/>
<path d="M272.488 196.036C277.12 196.036 280.874 192.265 280.874 187.613C280.874 182.961 277.12 179.189 272.488 179.189C267.857 179.189 264.103 182.961 264.103 187.613C264.103 192.265 267.857 196.036 272.488 196.036Z" fill="white"/>
<path d="M99.7453 221.98C121.497 221.98 139.129 204.268 139.129 182.42C139.129 160.572 121.497 142.86 99.7453 142.86C77.9942 142.86 60.3613 160.572 60.3613 182.42C60.3613 204.268 77.9942 221.98 99.7453 221.98Z" fill="#67657E"/>
<path d="M99.7457 192.116C105.077 192.116 109.399 187.775 109.399 182.42C109.399 177.065 105.077 172.724 99.7457 172.724C94.4145 172.724 90.0928 177.065 90.0928 182.42C90.0928 187.775 94.4145 192.116 99.7457 192.116Z" fill="white"/>
<path d="M214.914 101.885L207.692 82.1814C207.315 81.1546 207.144 80.0633 207.187 78.9699C207.231 77.8765 207.488 76.8024 207.945 75.809C208.402 74.8155 209.049 73.9222 209.849 73.18C210.65 72.4377 211.588 71.8611 212.61 71.4831L233.315 63.827C235.114 63.1617 237.026 62.8587 238.941 62.9355C240.856 63.0122 242.738 63.4672 244.478 64.2743C246.218 65.0814 247.783 66.225 249.084 67.6396C250.384 69.0543 251.394 70.7124 252.056 72.5192C252.654 74.1409 252.959 75.8564 252.957 77.5855C252.949 79.7811 252.455 81.9473 251.509 83.9267C250.564 85.9061 249.191 87.6491 247.49 89.0288C246.262 90.0185 244.882 90.8004 243.403 91.3438L214.914 101.885Z" fill="#67657E"/>
<path d="M252.653 77.5851C252.651 79.7359 252.169 81.8589 251.243 83.7981C250.317 85.7372 248.969 87.443 247.3 88.7901C244.739 88.1115 242.356 86.8809 240.316 85.1837C238.276 83.4865 236.629 81.3635 235.489 78.9623C234.349 76.561 233.743 73.9391 233.713 71.2788C233.683 68.6185 234.231 65.9837 235.318 63.5575C237.404 63.1018 239.565 63.1212 241.643 63.6143C243.721 64.1074 245.663 65.0617 247.325 66.4071C248.988 67.7524 250.329 69.4548 251.251 71.3891C252.173 73.3234 252.652 75.4405 252.653 77.5851Z" fill="#ED285D"/>
<path d="M68.5731 152.025C73.276 152.025 77.0885 147.374 77.0885 141.638C77.0885 135.902 73.276 131.252 68.5731 131.252C63.8701 131.252 60.0576 135.902 60.0576 141.638C60.0576 147.374 63.8701 152.025 68.5731 152.025Z" fill="#ED285D"/>
<path d="M181.136 178.403H188.593L192.141 158.977L181.135 158.977L181.136 178.403Z" fill="#FFB8B8"/>
<path d="M179.233 175.958L193.919 175.957H193.919C195.148 175.957 196.365 176.2 197.501 176.673C198.636 177.145 199.668 177.837 200.537 178.71C201.406 179.583 202.096 180.619 202.566 181.76C203.036 182.901 203.278 184.123 203.278 185.357V185.663L179.234 185.664L179.233 175.958Z" fill="#2F2E41"/>
<path d="M189.791 170.429C189.705 170.429 189.617 170.425 189.53 170.417L179.21 169.662C178.793 169.623 178.39 169.489 178.032 169.269C177.675 169.049 177.373 168.749 177.149 168.393C176.925 168.037 176.785 167.634 176.741 167.216C176.697 166.797 176.749 166.374 176.893 165.979L190.704 134.811C190.803 134.533 190.843 134.237 190.823 133.943C190.802 133.649 190.721 133.362 190.585 133.101C190.449 132.836 190.259 132.604 190.027 132.419C189.795 132.233 189.527 132.099 189.24 132.026C182.745 130.32 166.083 125.78 151.658 120.467C145.479 118.191 141.586 114.902 140.09 110.691C138.118 105.139 141.036 100.076 141.161 99.8637L141.259 99.6973L154.832 100.936L169.546 102.194L201.791 119.562C204.493 121.029 206.546 123.466 207.54 126.385C208.534 129.304 208.396 132.493 207.155 135.315L192.289 168.8C192.074 169.285 191.724 169.697 191.28 169.986C190.837 170.275 190.32 170.429 189.791 170.429Z" fill="#2F2E41"/>
<path d="M157.192 39.2733C165.443 39.2733 172.131 32.555 172.131 24.2675C172.131 15.98 165.443 9.26172 157.192 9.26172C148.941 9.26172 142.253 15.98 142.253 24.2675C142.253 32.555 148.941 39.2733 157.192 39.2733Z" fill="#FFB8B8"/>
<path d="M176.878 180.236H184.335L187.883 160.81L176.877 160.81L176.878 180.236Z" fill="#FFB8B8"/>
<path d="M174.976 177.791L189.661 177.79H189.662C190.891 177.79 192.108 178.033 193.244 178.506C194.379 178.978 195.411 179.67 196.28 180.543C197.149 181.416 197.838 182.452 198.309 183.593C198.779 184.734 199.021 185.956 199.021 187.19V187.496L174.977 187.497L174.976 177.791Z" fill="#2F2E41"/>
<path d="M185.534 172.262C185.447 172.262 185.36 172.258 185.272 172.25L174.953 171.495C174.535 171.456 174.132 171.322 173.775 171.102C173.418 170.882 173.115 170.582 172.892 170.226C172.668 169.87 172.528 169.467 172.484 169.049C172.439 168.63 172.491 168.207 172.636 167.812L186.447 136.644C186.545 136.366 186.586 136.07 186.565 135.776C186.545 135.482 186.464 135.195 186.327 134.934C186.191 134.669 186.001 134.437 185.77 134.252C185.538 134.066 185.27 133.932 184.982 133.859C178.488 132.153 161.825 127.613 147.401 122.3C141.221 120.024 137.329 116.735 135.833 112.524C133.86 106.972 136.779 101.909 136.904 101.697L137.002 101.53L150.574 102.769L165.289 104.027L197.534 121.395C200.236 122.862 202.288 125.299 203.282 128.218C204.276 131.137 204.139 134.326 202.898 137.148L188.032 170.633C187.817 171.118 187.466 171.53 187.023 171.819C186.58 172.108 186.063 172.262 185.534 172.262Z" fill="#2F2E41"/>
<path d="M161.799 47.7818L145.985 42.2832C145.985 42.2832 136.057 49.9446 140.826 68.9507C143.316 78.7585 142.591 89.1114 138.758 98.4724C138.297 99.6306 137.765 100.759 137.165 101.852C137.165 101.852 154.804 123.235 171.227 107.35L164.84 76.4969C164.84 76.4969 174.876 56.0298 161.799 47.7818Z" fill="#ED285D"/>
<path d="M159.047 39.7835C156.92 36.5868 155.242 32.1541 157.583 29.1126C159.894 26.1102 164.452 26.5526 167.991 25.224C172.92 23.3736 175.779 17.5569 174.887 12.3477C173.996 7.13844 169.833 2.82013 164.873 1.05322C159.914 -0.713693 154.321 -0.139052 149.464 1.89566C143.486 4.4004 138.357 9.24567 136.206 15.3833C134.056 21.521 135.205 28.8905 139.667 33.608C144.45 38.6657 151.957 40.0136 158.901 39.9319" fill="#2F2E41"/>
<path d="M229.776 76.5479C229.383 75.6734 228.804 74.8961 228.079 74.2708C227.355 73.6454 226.503 73.1873 225.583 72.9285C224.663 72.6698 223.698 72.6168 222.755 72.7733C221.813 72.9298 220.916 73.292 220.128 73.8343L162.059 60.7432L161.337 74.998L218.644 83.3838C219.639 84.6532 221.063 85.512 222.646 85.7974C224.229 86.0828 225.861 85.7751 227.233 84.9325C228.605 84.0899 229.622 82.7709 230.091 81.2256C230.559 79.6803 230.448 78.0159 229.776 76.5479Z" fill="#FFB8B8"/>
<path d="M172.24 62.0528L168.695 76.4834C168.595 76.894 168.407 77.278 168.145 77.6091C167.883 77.9402 167.553 78.2108 167.178 78.4023C166.802 78.5938 166.39 78.7018 165.97 78.719C165.549 78.7361 165.13 78.662 164.74 78.5017L151.089 72.8824C149 72.3533 147.204 71.0132 146.097 69.156C144.99 67.2989 144.662 65.0765 145.184 62.9764C145.706 60.8763 147.037 59.0701 148.883 57.9541C150.73 56.8381 152.942 56.5035 155.034 57.0237L169.673 58.4182C170.092 58.4583 170.497 58.5886 170.862 58.8003C171.226 59.012 171.541 59.3002 171.785 59.6451C172.028 59.99 172.195 60.3836 172.274 60.7991C172.352 61.2146 172.341 61.6422 172.24 62.0528Z" fill="#ED285D"/>
<path d="M223.068 87.8737C225.419 87.8737 227.326 85.959 227.326 83.597C227.326 81.2351 225.419 79.3203 223.068 79.3203C220.716 79.3203 218.81 81.2351 218.81 83.597C218.81 85.959 220.716 87.8737 223.068 87.8737Z" fill="#ED285D"/>
<path d="M323 222.5C323 222.368 322.961 222.241 322.893 222.147C322.825 222.053 322.732 222 322.636 222H21.3643C21.2677 222 21.175 222.053 21.1067 222.146C21.0384 222.24 21 222.367 21 222.5C21 222.633 21.0384 222.76 21.1067 222.854C21.175 222.947 21.2677 223 21.3643 223H322.636C322.732 223 322.825 222.947 322.893 222.853C322.961 222.759 323 222.632 323 222.5Z" fill="#67657E"/>
</g>
<defs>
<clipPath id="clip0_1230_2841">
<rect width="319" height="223" fill="white"/>
</clipPath>
</defs>
</svg>
