<svg width="66" height="54" viewBox="0 0 66 54" fill="none" xmlns="http://www.w3.org/2000/svg">
<path fill-rule="evenodd" clip-rule="evenodd" d="M55.6298 37.56C55.6298 41.77 59.7398 48.46 65.4798 51.8C56.8698 51.8 49.9898 49.03 44.7398 45.49C45.4998 44.92 46.2698 44.34 47.0398 43.67C52.0098 39.08 55.3498 32.49 55.3498 24.94C55.3498 17.39 51.9998 10.7 47.0398 6.2C43.6898 3.24 39.7798 1.23 35.7598 0.08C36.0398 0 36.4198 0 36.7098 0C43.5898 0 49.7998 2.58 54.2998 6.69C58.8898 10.8 61.6598 16.44 61.6598 22.75C61.6598 28.39 59.4598 33.55 55.6298 37.56Z" fill="#CACACA"/>
<path fill-rule="evenodd" clip-rule="evenodd" d="M9.46 39.19C9.46 43.3 5.55 49.8 0 53.05C8.99 53.05 16.06 49.9 21.32 46.07C23.42 46.64 25.62 46.93 27.82 46.93C34.51 46.93 40.53 44.44 44.93 40.43C49.33 36.51 52 30.97 52 24.95C52 18.83 49.32 13.38 44.93 9.37C40.53 5.36 34.51 2.97 27.82 2.97C21.22 2.97 15.2 5.36 10.81 9.37C6.41 13.39 3.74 18.83 3.74 24.95C3.73 30.39 5.93 35.37 9.46 39.19Z" fill="#ED285D"/>
</svg>
